<?xml version="1.0" encoding="UTF-8" standalone="no"?>
<!-- Created with Inkscape (http://www.inkscape.org/) -->

<svg
   width="77.560486mm"
   height="82.239235mm"
   viewBox="0 0 77.560486 82.239235"
   version="1.1"
   id="svg1"
   xml:space="preserve"
   inkscape:version="1.3.2 (091e20e, 2023-11-25, custom)"
   sodipodi:docname="active_workout.svg"
   xmlns:inkscape="http://www.inkscape.org/namespaces/inkscape"
   xmlns:sodipodi="http://sodipodi.sourceforge.net/DTD/sodipodi-0.dtd"
   xmlns="http://www.w3.org/2000/svg"
   xmlns:svg="http://www.w3.org/2000/svg"><sodipodi:namedview
     id="namedview1"
     pagecolor="#505050"
     bordercolor="#eeeeee"
     borderopacity="1"
     inkscape:showpageshadow="0"
     inkscape:pageopacity="0"
     inkscape:pagecheckerboard="0"
     inkscape:deskcolor="#505050"
     inkscape:document-units="mm"
     inkscape:zoom="1.0449705"
     inkscape:cx="151.20043"
     inkscape:cy="240.67664"
     inkscape:window-width="2560"
     inkscape:window-height="1369"
     inkscape:window-x="-8"
     inkscape:window-y="-8"
     inkscape:window-maximized="1"
     inkscape:current-layer="layer1" /><defs
     id="defs1" /><g
     inkscape:label="Layer 1"
     inkscape:groupmode="layer"
     id="layer1"
     transform="translate(-65.10878,-84.761203)"><path
       style="fill:#000000"
       d="m 77.847878,166.39219 c -6.274947,-1.85817 -10.97959,-7.01519 -12.2781,-13.4587 -0.609462,-3.02429 -0.616979,-50.12977 -0.0085,-53.33735 1.491967,-7.865011 7.545338,-13.406312 15.958423,-14.608459 1.378249,-0.196938 9.060992,-0.263353 23.988069,-0.20737 l 21.96042,0.08236 2.20283,0.717442 c 3.6365,1.184373 7.07911,3.512683 9.11408,6.164051 1.0398,1.354758 2.7793,4.737814 3.39763,6.607859 0.48571,1.46895 0.69063,51.385047 0.22318,54.362317 -0.82911,5.28063 -4.7958,10.5101 -9.64606,12.71683 -3.52389,1.60327 -3.12027,1.58159 -29.15639,1.56605 l -23.760273,-0.0142 z m 52.670012,-5.77479 c 2.11761,-0.71513 3.95714,-2.36554 5.10694,-4.58191 0.73241,-1.41179 0.82654,-1.84612 0.83248,-3.84076 0.006,-1.87715 -0.10115,-2.46008 -0.64564,-3.526 -1.55058,-3.03549 -5.03132,-5.33024 -8.07891,-5.32619 -1.29896,0.002 -1.89147,0.1657 -3.25991,0.90214 -1.77648,0.95604 -3.46427,2.65184 -4.33593,4.35651 -0.7609,1.48805 -0.93384,4.63837 -0.36253,6.60362 0.73437,2.52613 3.22527,4.78126 6.1793,5.59439 1.80443,0.49669 2.65544,0.46279 4.5642,-0.1818 z m -4.91909,-2.04367 c -1.45352,-0.66019 -2.94722,-2.01347 -3.57017,-3.23455 -0.80714,-1.58213 -0.74352,-1.65431 1.2914,-1.46518 2.01239,0.18703 2.32697,0.0507 3.17234,-1.37457 l 0.52545,-0.88592 0.15803,0.75363 c 0.0869,0.4145 0.2713,1.57657 0.40973,2.58238 0.42554,3.09195 1.26615,3.25315 2.77091,0.53136 l 0.86598,-1.56635 1.49629,-0.0794 c 1.22811,-0.0651 1.49629,-0.004 1.49629,0.34386 0,1.18978 -2.36367,3.78912 -4.10852,4.51816 -1.2373,0.51698 -3.21706,0.46275 -4.50773,-0.12347 z m 3.38673,-7.93061 c -0.3981,-2.92307 -0.49463,-3.17654 -1.28539,-3.37501 -0.88727,-0.22269 -1.22995,0.15076 -2.21821,2.41738 l -0.86333,1.98008 h -1.55177 c -1.4336,0 -1.55159,-0.0453 -1.5493,-0.59532 0.004,-0.9737 1.51973,-3.32282 2.69164,-4.17175 2.98398,-2.16158 6.75858,-1.56581 8.94882,1.41246 0.83942,1.14144 1.48069,2.75459 1.20473,3.03055 -0.0933,0.0933 -1.05768,0.15268 -2.14304,0.13191 -1.08536,-0.0208 -1.97603,0.0437 -1.97926,0.14335 -0.003,0.0996 -0.21459,0.45227 -0.46968,0.78372 -0.45693,0.59371 -0.46855,0.5677 -0.78521,-1.75737 z m -45.752465,4.80164 c 2.396054,-2.39383 3.166831,-3.3376 3.383749,-4.14317 0.428344,-1.59074 0.08456,-2.76962 -1.174039,-4.02588 -1.784645,-1.78133 -3.773519,-1.80185 -5.518435,-0.0569 l -0.552152,0.55215 -0.425964,-0.55264 c -0.540705,-0.70149 -1.626837,-1.10897 -2.955969,-1.10897 -1.404802,0 -2.978928,1.38792 -3.379441,2.97968 -0.506045,2.01118 -0.02765,3.22267 2.151864,5.44935 2.348912,2.39974 4.320747,4.00638 4.91705,4.00638 0.247771,0 1.846773,-1.39498 3.553337,-3.09997 z m 15.909692,2.51194 c 0.338932,-0.4839 0.406334,-1.4328 0.380574,-5.35782 -0.01722,-2.62337 -0.107684,-5.12696 -0.201036,-5.56352 -0.149238,-0.69791 -0.281234,-0.79375 -1.093175,-0.79375 h -0.923444 l -0.0714,5.78739 c -0.04992,4.04618 0.01953,5.89697 0.230835,6.15157 0.450261,0.54253 1.212035,0.44087 1.677643,-0.22387 z m 10.055513,0.2573 c 0.0561,-0.1819 0.17384,-2.78513 0.26159,-5.78496 0.14924,-5.10128 0.12699,-5.49446 -0.34383,-6.0759 -0.4449,-0.54943 -0.58388,-0.585 -1.19594,-0.30613 l -0.69254,0.31555 v 5.67531 c 0,4.8066 0.0636,5.73896 0.41578,6.09109 0.49764,0.49764 1.41222,0.54766 1.55494,0.085 z m -4.83337,-1.65364 c 0.24153,-1.3719 0.24122,-7.89096 -4.3e-4,-9.26042 -0.14695,-0.8328 -0.31596,-1.07676 -0.79306,-1.14479 -1.28998,-0.18394 -1.37094,0.15588 -1.37094,5.75448 0,5.58292 0.0795,5.93199 1.31792,5.78658 0.54288,-0.0637 0.69329,-0.26557 0.84651,-1.13585 z m 9.50588,0.11696 c 0.48388,-0.25896 0.51988,-0.54109 0.48112,-3.77031 -0.0485,-4.03973 -0.20867,-4.68103 -1.16925,-4.68103 -0.99412,0 -1.20109,0.86244 -1.10903,4.62123 0.0955,3.90053 0.41067,4.57214 1.79716,3.83011 z m -19.734706,-0.25799 c 0.220494,-0.35676 0.229688,-6.65891 0.01072,-7.34881 -0.193477,-0.60959 -0.762693,-0.8968 -1.339036,-0.67563 -0.257135,0.0987 -0.396875,0.5089 -0.396875,1.16509 0,0.55704 -0.121123,1.33138 -0.269162,1.72075 -0.261282,0.68723 0.04884,4.57679 0.411729,5.16396 0.206758,0.33454 1.371729,0.31588 1.582622,-0.0254 z m 42.207136,-16.13085 h 4.42957 l -0.10453,-17.39635 c -0.14614,-24.319144 -0.10478,-23.774649 -2.09288,-27.557996 -1.75985,-3.349006 -4.84566,-5.958346 -9.02508,-7.631557 l -1.81753,-0.727638 -23.36404,-0.07308 -23.364036,-0.07308 -2.3692,0.813471 c -1.30306,0.447409 -3.086197,1.240583 -3.962526,1.76261 -2.046266,1.218954 -4.766726,4.253502 -5.807904,6.478447 -1.552886,3.318441 -1.589587,3.898251 -1.589587,25.112743 v 19.29019 l 30.360939,0.0847 c 16.698514,0.0466 31.242104,0.0471 32.319084,0.001 1.07698,-0.046 3.95146,-0.0836 6.38772,-0.0836 z m -17.17949,-3.93883 c -0.54421,-0.54421 -0.55529,-0.74451 -0.52497,-9.4872 0.0191,-5.50535 0.13241,-9.05812 0.29541,-9.26199 0.47239,-0.59082 1.49559,-0.39801 1.67469,0.31557 0.0892,0.35546 0.1107,4.58848 0.0477,9.4067 -0.0975,7.46599 -0.17523,8.82117 -0.5257,9.17164 -0.37191,0.37191 -0.46437,0.35808 -0.96717,-0.14472 z m -46.679153,0.0362 c -0.06259,-0.10914 -0.195296,-1.45829 -0.294907,-2.99811 -0.201241,-3.11087 0.0047,-3.63536 1.30008,-3.31025 0.658702,0.16532 0.664894,0.19344 0.664894,3.01934 0,1.8658 -0.109822,2.96228 -0.3175,3.16996 -0.353532,0.35353 -1.17656,0.42598 -1.352567,0.11906 z m 5.139015,-0.16306 c -0.215268,-0.25938 -0.280471,-3.37152 -0.230834,-11.01759 0.06344,-9.77224 0.107171,-10.68005 0.527234,-10.94496 0.355259,-0.22403 0.563082,-0.1839 0.926042,0.17884 0.429066,0.4288 0.474451,1.33816 0.545736,10.93463 0.05708,7.68461 -0.0043,10.56577 -0.230834,10.83875 -0.392509,0.47295 -1.149188,0.47803 -1.537344,0.0103 z m 5.019001,-0.01 c -0.195397,-0.23543 -0.279834,-1.17906 -0.230834,-2.57968 l 0.07726,-2.20846 h 0.926042 0.926042 l 0.07722,2.04723 c 0.04247,1.12598 -0.05102,2.28684 -0.207747,2.57969 -0.33013,0.61685 -1.122245,0.6983 -1.567979,0.16122 z m 5.058718,0.0537 c -0.329309,-0.32931 -0.438512,-2.76346 -0.156901,-3.49732 0.189276,-0.49325 1.184956,-0.55463 1.638568,-0.10102 0.174625,0.17463 0.3175,0.98425 0.3175,1.79917 0,1.51085 -0.302908,2.11667 -1.058334,2.11667 -0.232833,0 -0.566208,-0.14288 -0.740833,-0.3175 z m 5.155822,0.11906 c -0.06279,-0.10914 -0.196498,-1.17429 -0.297137,-2.36699 -0.217643,-2.57935 0.04589,-3.32984 1.125465,-3.20512 0.700812,0.081 0.710798,0.11051 0.787875,2.33096 0.100217,2.88708 -0.03813,3.43959 -0.861242,3.43959 -0.352442,0 -0.692174,-0.0893 -0.754961,-0.19844 z m 5.119321,-0.31334 c -0.150641,-0.28147 -0.273893,-1.77758 -0.273893,-3.32468 0,-1.5471 0.123252,-3.04321 0.273893,-3.32469 0.308684,-0.57678 1.048531,-0.67101 1.525274,-0.19427 0.390634,0.39063 0.437759,5.68175 0.05947,6.67673 -0.30928,0.81347 -1.189118,0.90614 -1.584739,0.16691 z m 5.309056,0.14707 c -0.21039,-0.2535 -0.28078,-1.9679 -0.23084,-5.6224 l 0.0718,-5.25769 h 0.79375 c 0.77349,0 0.79804,0.0399 0.96174,1.56417 0.21627,2.0137 0.1135,8.96058 -0.13859,9.36847 -0.262,0.42393 -1.08716,0.39418 -1.45791,-0.0526 z m 5.00969,-0.14707 c -0.15064,-0.28147 -0.27389,-1.75517 -0.27389,-3.27489 0,-2.98297 0.20508,-3.47703 1.3745,-3.31125 0.59268,0.084 0.61199,0.17491 0.68467,3.22393 0.0779,3.26751 -0.0824,3.87399 -1.02392,3.87399 -0.26811,0 -0.61072,-0.2303 -0.76136,-0.51178 z m 5.29167,0 c -0.16379,-0.30604 -0.27389,-2.73927 -0.27389,-6.05302 0,-5.96192 0.0705,-6.27423 1.3745,-6.08937 l 0.60987,0.0865 0.0713,5.91981 c 0.0499,4.14409 -0.0193,6.02901 -0.23084,6.28385 -0.43477,0.52388 -1.23215,0.44793 -1.55094,-0.14773 z m 10.42562,0.16831 c -0.0725,-0.18891 -0.0985,-2.00462 -0.0579,-4.0349 l 0.074,-3.69143 0.8599,-0.0829 0.8599,-0.0829 v 3.8003 c 0,2.60302 -0.10003,3.90033 -0.3175,4.11781 -0.42046,0.42045 -1.25296,0.4052 -1.41841,-0.026 z m 5.07157,0.1248 c -0.0743,-0.12027 -0.15322,-5.13601 -0.17531,-11.14609 -0.0423,-11.49546 -0.054,-11.37444 1.10673,-11.38536 1.00088,-0.009 1.04067,0.43355 1.01212,11.26591 -0.0162,6.16065 -0.13316,10.73275 -0.28155,11.01002 -0.25686,0.47995 -1.41339,0.65776 -1.66199,0.25552 z m 5.26248,-0.0472 c -0.0904,-0.14625 -0.22194,-2.41943 -0.29233,-5.05151 -0.13947,-5.21478 -0.068,-5.5305 1.25158,-5.5305 h 0.76136 v 5.00544 c 0,2.753 -0.0723,5.19378 -0.1606,5.42396 -0.17743,0.46236 -1.30067,0.57224 -1.56001,0.15261 z M 87.910068,124.34734 c -0.288359,-0.47295 -0.524734,-1.05308 -0.525278,-1.2892 -5.44e-4,-0.23611 0.564558,-1.14701 1.255782,-2.02421 0.691224,-0.87721 1.792552,-2.27161 2.447396,-3.09867 1.344736,-1.69839 2.569127,-3.59766 3.607912,-5.59656 l 0.706324,-1.35916 1.404023,1.14359 c 0.772212,0.62898 1.955485,1.38753 2.629494,1.68568 l 1.225469,0.54208 -5.458356,5.42817 c -5.982213,5.94913 -6.321326,6.16155 -7.292766,4.56828 z m 13.546542,-3.38375 c -0.38951,-0.36288 -0.57906,-0.85271 -0.57906,-1.49638 0,-0.86171 0.2764,-1.23432 2.77813,-3.74515 1.52797,-1.53353 2.77812,-2.8683 2.77812,-2.96616 0,-0.0979 -1.18663,-0.23506 -2.63696,-0.3049 -2.29556,-0.11054 -2.86337,-0.23843 -4.385571,-0.98781 -1.861957,-0.91664 -2.764286,-1.96997 -2.766062,-3.22895 -5.44e-4,-0.38562 0.672916,-2.14257 1.496578,-3.90435 0.823662,-1.76177 1.416469,-3.28432 1.317348,-3.38344 -0.09912,-0.0991 -0.863148,-0.22962 -1.697841,-0.28999 l -1.517622,-0.10978 -1.151114,1.36516 c -0.633113,0.75083 -1.60638,1.66643 -2.162816,2.03466 -0.916177,0.6063 -1.08122,0.6361 -1.747977,0.31564 -0.463482,-0.22276 -0.828993,-0.67769 -0.98652,-1.22786 -0.235891,-0.82387 -0.175741,-0.95015 1.048845,-2.20197 0.714499,-0.73039 1.850821,-1.736074 2.525161,-2.23486 l 1.226073,-0.906885 h 5.129598 5.12959 l 1.67031,1.521354 1.67031,1.521351 -2.40459,2.64584 c -2.18015,2.39888 -2.36128,2.67716 -1.94056,2.98147 0.25522,0.1846 1.76141,1.19411 3.3471,2.24335 3.23325,2.13943 3.85745,2.98231 3.34831,4.5213 -0.35825,1.08291 -7.66442,8.37784 -8.39074,8.37784 -0.28544,0 -0.77956,-0.24277 -1.09804,-0.53948 z m 18.89984,-9.85543 c -0.25816,-0.18877 -0.78769,-0.93347 -1.17674,-1.65489 l -0.70737,-1.31166 -1.85208,-0.13229 c -1.75497,-0.12536 -1.85625,-0.16817 -1.93161,-0.8164 -0.10997,-0.94609 0.34678,-1.23436 2.55608,-1.61321 l 1.91094,-0.32769 1.0206,1.18021 c 0.56133,0.64912 1.08549,1.11747 1.16478,1.04078 0.1699,-0.1643 2.121,-4.83552 2.81509,-6.73974 1.22893,-3.371526 1.69857,-3.96668 2.88527,-3.656351 0.66307,0.173397 1.46479,1.618616 2.50419,4.514171 0.3783,1.05388 0.92595,2.38291 1.21698,2.95338 l 0.52916,1.03724 2.05697,0.16745 c 2.26697,0.18456 2.80735,0.37661 2.93871,1.04445 0.16705,0.8493 -0.47054,1.21571 -2.11548,1.21571 -1.18711,0 -1.75185,0.13753 -2.33499,0.56867 -0.71256,0.52682 -0.81542,0.53838 -1.3973,0.15712 -0.38257,-0.25067 -0.95329,-1.22287 -1.45992,-2.48691 -1.6795,-4.19033 -2.14616,-5.24126 -2.35572,-5.30512 -0.11779,-0.0359 -0.71508,1.2119 -1.32731,2.77288 -1.92576,4.91004 -2.74004,6.79723 -3.06748,7.10923 -0.54037,0.51489 -1.38174,0.64202 -1.87277,0.28297 z M 84.624758,110.589 c -0.214495,-0.32742 -0.703648,-1.42875 -1.087006,-2.44739 -0.383358,-1.01865 -0.788849,-1.97115 -0.901091,-2.11667 -0.112242,-0.14552 -0.535873,-1.15755 -0.941402,-2.24896 -1.105985,-2.97656 -1.473372,-3.28033 -1.999913,-1.65364 -0.176638,0.5457 -0.798504,2.15512 -1.381924,3.57649 -1.144999,2.78953 -1.646358,3.22547 -3.000123,2.60865 -0.359919,-0.16399 -1.220295,-0.29816 -1.911948,-0.29816 -1.314011,0 -1.89255,-0.3298 -1.89255,-1.07886 0,-0.7255 0.568554,-0.99234 2.598363,-1.21948 l 1.923089,-0.21521 1.572957,-3.96875 c 1.490874,-3.761642 2.019811,-4.630205 2.819702,-4.630205 0.580242,0 1.308844,0.91927 1.806863,2.2797 1.327155,3.625365 3.310173,8.039045 3.611856,8.039045 0.116938,0 0.513259,-0.47625 0.880712,-1.05833 0.762798,-1.20835 0.986464,-1.26148 2.198792,-0.52235 0.708351,0.43187 0.841601,0.64676 0.696679,1.12349 -0.09856,0.32422 -0.446955,0.82761 -0.774214,1.11865 -0.327259,0.29105 -0.867386,1.00542 -1.200282,1.5875 -0.332896,0.58209 -0.788354,1.20716 -1.012128,1.38907 -0.63422,0.51554 -1.576794,0.39124 -2.006432,-0.26459 z m 24.031602,-6.10715 -0.71736,-0.61705 1.07167,-1.43347 c 0.58942,-0.78841 1.90905,-2.23715 2.93252,-3.219411 2.01994,-1.938627 2.80586,-2.201944 3.75103,-1.256771 0.97978,0.979782 0.69052,1.547784 -2.25329,4.424612 -3.03077,2.9618 -3.53007,3.18116 -4.78457,2.10209 z m -5.54113,-9.511995 c -0.9911,-0.852516 -1.18991,-2.68457 -0.39993,-3.685598 1.80335,-2.285141 5.78756,-0.124969 4.67604,2.53527 -0.74086,1.773146 -2.88231,2.349222 -4.27611,1.150328 z"
       id="path1" /></g></svg>
