<?xml version="1.0" encoding="UTF-8" standalone="no"?>
<!-- Created with Inkscape (http://www.inkscape.org/) -->

<svg
   width="31.157396mm"
   height="26.537243mm"
   viewBox="0 0 31.157396 26.537243"
   version="1.1"
   id="svg1"
   xml:space="preserve"
   inkscape:version="1.3.2 (091e20e, 2023-11-25, custom)"
   sodipodi:docname="barbell_weights.svg"
   xmlns:inkscape="http://www.inkscape.org/namespaces/inkscape"
   xmlns:sodipodi="http://sodipodi.sourceforge.net/DTD/sodipodi-0.dtd"
   xmlns="http://www.w3.org/2000/svg"
   xmlns:svg="http://www.w3.org/2000/svg"><sodipodi:namedview
     id="namedview1"
     pagecolor="#505050"
     bordercolor="#eeeeee"
     borderopacity="1"
     inkscape:showpageshadow="0"
     inkscape:pageopacity="0"
     inkscape:pagecheckerboard="0"
     inkscape:deskcolor="#505050"
     inkscape:document-units="mm"
     inkscape:zoom="2.0899411"
     inkscape:cx="-105.74461"
     inkscape:cy="100.24206"
     inkscape:window-width="2560"
     inkscape:window-height="1369"
     inkscape:window-x="-8"
     inkscape:window-y="-8"
     inkscape:window-maximized="1"
     inkscape:current-layer="layer1" /><defs
     id="defs1" /><g
     inkscape:label="Layer 1"
     inkscape:groupmode="layer"
     id="layer1"
     transform="translate(-136.69916,-141.15983)"><path
       id="path1"
       style="fill:#000000"
       d="m 160.41708,141.15986 c -1.10795,2.4e-4 -2.33177,0.59357 -4.30154,1.85363 -1.83435,1.17342 -2.31851,2.10239 -2.33991,4.48965 -0.0129,1.44461 0.0889,1.97599 0.44648,2.33371 0.25466,0.25478 0.46302,0.50482 0.46302,0.55552 0,0.13947 -4.44032,3.3409 -6.00325,4.32842 -0.75499,0.47702 -1.41941,1.0073 -1.47639,1.17822 -0.0641,0.19235 -0.66193,-0.0742 -1.56942,-0.69918 -1.6411,-1.13027 -3.28883,-1.60564 -4.72374,-1.36323 -0.89342,0.15094 -3.29095,1.83653 -3.75016,2.63654 -0.10582,0.18437 -0.27144,1.81296 -0.36794,3.6189 -0.17183,3.21425 -0.1618,3.2992 0.46613,4.02921 0.41937,0.48755 0.94162,0.7693 1.50843,0.8139 0.6539,0.0514 1.02067,0.29461 1.49293,0.98961 0.3444,0.50683 1.0218,1.11668 1.50534,1.35495 h 5.1e-4 c 1.15515,0.56928 2.04235,0.5562 2.71405,-0.0393 0.30042,-0.26632 1.04296,-0.62522 1.65003,-0.79789 0.61245,-0.1742 1.66758,-0.82459 2.3704,-1.46089 1.24837,-1.13023 1.26827,-1.17279 1.36477,-2.97191 0.0839,-1.5644 9.9e-4,-2.00543 -0.57722,-3.0825 -0.37122,-0.69123 -0.56864,-1.25677 -0.43874,-1.25677 0.2745,0 3.98162,-2.24581 6.09886,-3.69487 1.36017,-0.93092 2.99443,-1.86138 3.26956,-1.86138 0.066,0 0.0677,0.20836 0.003,0.46302 -0.0645,0.25466 0.12529,0.93507 0.42168,1.51154 0.64538,1.25522 0.72049,2.99941 0.13901,3.22254 -0.21976,0.0843 -0.80722,-0.1575 -1.30534,-0.53744 -0.49812,-0.37993 -1.18112,-0.72066 -1.51826,-0.75706 -0.50896,-0.0549 -0.60062,0.0449 -0.54002,0.58601 0.10627,0.94841 0.95691,1.7271 3.08095,2.8205 l 1.87896,0.96739 1.53427,-0.98134 c 1.63273,-1.04445 1.82339,-1.62895 0.51211,-1.57045 -0.76702,0.0342 -0.80895,-0.0206 -0.9741,-1.26555 -0.20544,-1.54865 -0.13589,-1.69747 0.89039,-1.90273 0.43388,-0.0868 1.23968,-0.56461 1.7911,-1.06195 0.55141,-0.49734 1.41924,-1.13223 1.92857,-1.41128 0.53004,-0.2904 1.14066,-0.94017 1.4273,-1.51929 0.48387,-0.9775 0.48485,-1.0621 0.0341,-2.49959 -1.01363,-3.23265 -1.67763,-4.12767 -4.43487,-5.97741 -1.01806,-0.68298 -1.80942,-1.04147 -2.67116,-1.04128 z m -1.08882,1.95854 c 2.45773,0 6.35676,4.13505 6.15466,6.52725 -0.10947,1.29569 -0.64372,1.4184 -0.97358,0.22376 -0.62152,-2.25096 -2.28388,-4.1487 -4.76819,-5.4436 -1.23151,-0.6419 -1.44167,-1.30741 -0.41289,-1.30741 z m -2.21434,2.53059 c 0.20444,0.001 0.4236,0.0431 0.65009,0.12919 1.11474,0.42382 3.41296,2.50074 3.89796,3.52278 0.64167,1.35222 0.56941,2.95124 -0.15658,3.45974 -0.77426,0.54231 -0.99709,0.51404 -1.84795,-0.23513 l -0.71572,-0.63045 0.64957,-0.4253 c 1.13711,-0.74506 0.65988,-2.36601 -0.94051,-3.1936 -0.94335,-0.48785 -1.5844,-0.50705 -1.5844,-0.0481 0,0.42052 -0.97277,1.50482 -1.34979,1.50482 -0.24924,0 -0.16766,-1.42804 0.17674,-3.1011 0.1291,-0.62723 0.60727,-0.98726 1.22059,-0.98289 z m -15.77991,9.94203 c 0.73646,-0.059 2.03708,0.55258 3.46077,1.70532 2.03801,1.65015 3.43014,4.65247 2.74815,5.92677 -0.47261,0.88307 -1.05988,0.66059 -1.05988,-0.40152 0,-2.12376 -1.81256,-4.4221 -4.46795,-5.66581 -0.90907,-0.4258 -1.34607,-0.7826 -1.29397,-1.05626 0.0602,-0.31617 0.27812,-0.48166 0.61288,-0.5085 z m -1.85105,2.69854 c 0.30864,0.0117 0.66273,0.17782 1.30018,0.55139 2.19714,1.28761 3.84783,3.44149 3.84783,5.02192 0,0.72446 -1.08137,2.16341 -1.39217,1.8526 -0.10758,-0.10757 -0.19582,-0.74122 -0.19637,-1.40819 -0.002,-2.30562 -1.47142,-3.97549 -4.29844,-4.88394 -0.65496,-0.21046 -0.57449,-0.65503 0.18138,-0.99942 0.20333,-0.0926 0.37241,-0.14136 0.55759,-0.13436 z m -0.68316,3.08974 c 0.26508,2e-4 0.67029,0.23281 1.06763,0.65577 0.74065,0.78838 0.68201,0.86361 -0.52813,0.6749 -0.84673,-0.13205 -0.95371,-0.26962 -0.83354,-1.07074 0.0265,-0.17676 0.13499,-0.26005 0.29404,-0.25993 z" /></g></svg>
