<?xml version="1.0" encoding="UTF-8" standalone="no"?>
<!-- Created with Inkscape (http://www.inkscape.org/) -->

<svg
   width="38.588238mm"
   height="42.302658mm"
   viewBox="0 0 38.588238 42.302658"
   version="1.1"
   id="svg1"
   xml:space="preserve"
   inkscape:version="1.3.2 (091e20e, 2023-11-25, custom)"
   sodipodi:docname="calendar.svg"
   xmlns:inkscape="http://www.inkscape.org/namespaces/inkscape"
   xmlns:sodipodi="http://sodipodi.sourceforge.net/DTD/sodipodi-0.dtd"
   xmlns="http://www.w3.org/2000/svg"
   xmlns:svg="http://www.w3.org/2000/svg"><sodipodi:namedview
     id="namedview1"
     pagecolor="#505050"
     bordercolor="#eeeeee"
     borderopacity="1"
     inkscape:showpageshadow="0"
     inkscape:pageopacity="0"
     inkscape:pagecheckerboard="0"
     inkscape:deskcolor="#505050"
     inkscape:document-units="mm"
     inkscape:zoom="1.0449705"
     inkscape:cx="96.653443"
     inkscape:cy="267.47166"
     inkscape:window-width="2560"
     inkscape:window-height="1369"
     inkscape:window-x="-8"
     inkscape:window-y="-8"
     inkscape:window-maximized="1"
     inkscape:current-layer="layer1" /><defs
     id="defs1" /><g
     inkscape:label="Layer 1"
     inkscape:groupmode="layer"
     id="layer1"
     transform="translate(-79.577492,-77.801643)"><path
       style="fill:#000000"
       d="m 83.063228,119.46517 c -1.567571,-0.72985 -2.74742,-2.15687 -3.230152,-3.90684 -0.228505,-0.82836 -0.292689,-4.98293 -0.236369,-15.29978 l 0.07731,-14.162629 0.67549,-1.31224 c 0.774943,-1.50545 2.374547,-2.75028 3.557843,-2.76877 1.61709,-0.0253 1.984375,-0.25807 1.984375,-1.25779 0,-0.72324 0.22519,-1.1515 1.027206,-1.95352 1.333232,-1.33323 2.066204,-1.33531 3.45957,-0.01 0.868923,0.82659 1.069474,1.19871 1.069474,1.98438 v 0.96701 l 5.357812,0.002 c 2.946797,0.001 6.161493,0.0778 7.143753,0.17055 l 1.78594,0.16867 v -1.12305 c 0,-1.9878 2.23662,-3.63969 3.96099,-2.92544 0.98456,0.40783 1.66302,1.42914 1.84764,2.78134 0.13483,0.98755 0.20643,1.06312 1.07053,1.12976 0.50933,0.0393 1.19694,0.1316 1.52803,0.20515 0.96801,0.21505 2.73767,1.99608 3.4057,3.4276 l 0.61736,1.32291 v 13.890629 13.89062 l -0.61782,1.32292 c -0.84258,1.80419 -1.9268,3.02423 -3.20253,3.60371 -0.99521,0.45207 -2.06811,0.48593 -15.489072,0.48894 l -14.419791,0.003 z m 30.253972,-2.1708 c 0.50315,-0.23876 1.23552,-0.85444 1.62748,-1.36817 l 0.71267,-0.93407 0.0742,-11.46412 0.0742,-11.464109 H 98.864394 81.92298 v 11.500169 11.50016 l 0.854976,0.97377 c 1.504388,1.7134 1.077863,1.66872 16.03837,1.68012 12.060234,0.009 13.688794,-0.0384 14.500874,-0.42375 z m -27.935434,-3.17345 c -0.361334,-0.45936 -0.54837,-1.08451 -0.54837,-1.83288 0,-1.51385 0.856983,-2.23248 2.662311,-2.23248 1.067725,0 1.358732,0.11494 1.842205,0.72761 0.451119,0.57167 0.546997,0.9709 0.447369,1.86282 -0.185164,1.65768 -0.767776,2.17207 -2.460147,2.17207 -1.191901,0 -1.474834,-0.10149 -1.943368,-0.69714 z m 8.000995,0.48927 c -0.931342,-0.5922 -1.123094,-2.84679 -0.328078,-3.85749 0.461071,-0.58615 0.757832,-0.69714 1.864109,-0.69714 1.737651,0 2.614604,0.79869 2.614604,2.38125 0,1.56736 -0.880544,2.38259 -2.567661,2.3772 -0.697839,-0.002 -1.410177,-0.094 -1.582974,-0.20382 z m 7.490949,-0.13214 c -0.51015,-0.37303 -0.85153,-2.17324 -0.60123,-3.17052 0.33674,-1.34167 3.14967,-1.73726 4.2844,-0.60253 0.90249,0.90249 0.90249,2.56114 0,3.46363 -0.51114,0.51114 -0.92293,0.64943 -1.93381,0.64943 -0.7064,0 -1.49362,-0.153 -1.74936,-0.34001 z m 7.62787,-0.30942 c -0.48991,-0.4899 -0.64844,-0.92861 -0.64538,-1.78594 0.002,-0.62507 0.0915,-1.26751 0.19843,-1.42762 0.59851,-0.89635 3.18934,-1.21961 4.12037,-0.5141 0.63301,0.47967 1.00418,2.13295 0.6739,3.00166 -0.37976,0.99883 -1.01737,1.35766 -2.42909,1.36702 -1.00121,0.007 -1.40577,-0.12855 -1.91823,-0.64102 z m -22.143941,-6.67582 c -2.305012,-0.37425 -1.911682,-4.28579 0.476006,-4.73372 2.101053,-0.39416 3.429916,1.20359 2.786674,3.35054 -0.166976,0.55732 -0.390514,1.06702 -0.496752,1.13268 -0.352685,0.21797 -2.030412,0.36991 -2.765928,0.2505 z m 6.965055,-0.27613 c -0.905491,-0.73323 -1.103263,-3.09821 -0.338106,-4.04314 0.729872,-0.90135 2.919057,-0.95074 3.784425,-0.0854 0.821408,0.82141 0.995409,2.9193 0.312117,3.76313 -0.715477,0.88357 -2.860916,1.09214 -3.758436,0.36538 z m 7.756036,0.25514 c -0.98326,-0.65654 -1.263959,-3.619 -0.41565,-4.38671 0.48606,-0.43987 2.24732,-0.58526 3.3865,-0.27955 0.73232,0.19653 1.15673,1.16231 1.15673,2.63224 0,1.65787 -0.6357,2.23775 -2.44739,2.23246 -0.76399,-0.002 -1.52007,-0.0915 -1.68019,-0.19844 z m 7.32179,-0.49465 c -0.75041,-0.95398 -0.76104,-3.05894 -0.0192,-3.80077 0.58559,-0.58559 2.8055,-0.74554 3.70037,-0.26662 0.7821,0.41857 1.18416,1.99098 0.81994,3.20664 -0.37154,1.24009 -0.90839,1.55789 -2.63163,1.55789 -1.11207,0 -1.40787,-0.1103 -1.86947,-0.69714 z m -7.50758,-7.041919 c -0.24517,-0.1819 -0.51764,-0.86651 -0.6055,-1.52135 -0.13031,-0.97131 -0.0554,-1.32284 0.40666,-1.90839 1.19152,-1.50996 4.00287,-1.13123 4.38095,0.59017 0.2563,1.16691 -0.0646,2.58574 -0.65648,2.9025 -0.70094,0.375129 -2.99028,0.334269 -3.52563,-0.0629 z m 7.61079,-0.20935 c -0.34067,-0.37644 -0.48876,-0.94852 -0.48876,-1.88812 0,-1.14225 0.11099,-1.44352 0.72709,-1.97346 1.42568,-1.22633 3.65342,-0.56984 4.13497,1.21851 0.57003,2.11691 -0.27717,3.183149 -2.52921,3.183149 -1.02844,0 -1.47321,-0.13026 -1.84409,-0.540079 z m 1.18153,-12.67012 c 0.44617,-0.44617 0.49168,-0.7699 0.36263,-2.57969 -0.26842,-3.76433 -0.38765,-4.17461 -1.24173,-4.27298 -0.41464,-0.0478 -0.84971,0.0118 -0.96683,0.13229 -0.11711,0.12052 -0.24757,1.63053 -0.28991,3.35558 -0.0695,2.83219 -0.028,3.17228 0.42802,3.50573 0.68288,0.49933 1.10216,0.46473 1.70782,-0.14093 z m -19.850029,-0.3497 c 0.122256,-0.32742 0.118419,-0.87095 -0.0085,-1.20785 -0.126945,-0.33689 -0.230809,-1.68353 -0.230809,-2.99253 v -2.38 l -0.992188,0.0821 -0.992187,0.0821 -0.177452,3.04271 c -0.149811,2.56875 -0.112513,3.11483 0.239445,3.50573 0.615464,0.68355 1.886123,0.60579 2.161717,-0.1323 z"
       id="path1" /></g></svg>
