<?xml version="1.0" encoding="UTF-8" standalone="no"?>
<!-- Created with Inkscape (http://www.inkscape.org/) -->

<svg
   width="50.784264mm"
   height="50.137711mm"
   viewBox="0 0 50.784264 50.13771"
   version="1.1"
   id="svg1"
   xml:space="preserve"
   sodipodi:docname="minus-icon.svg"
   inkscape:version="1.3.2 (091e20e, 2023-11-25, custom)"
   xmlns:inkscape="http://www.inkscape.org/namespaces/inkscape"
   xmlns:sodipodi="http://sodipodi.sourceforge.net/DTD/sodipodi-0.dtd"
   xmlns="http://www.w3.org/2000/svg"
   xmlns:svg="http://www.w3.org/2000/svg"><sodipodi:namedview
     id="namedview1"
     pagecolor="#505050"
     bordercolor="#eeeeee"
     borderopacity="1"
     inkscape:showpageshadow="0"
     inkscape:pageopacity="0"
     inkscape:pagecheckerboard="0"
     inkscape:deskcolor="#505050"
     inkscape:document-units="mm"
     inkscape:zoom="1.0449705"
     inkscape:cx="-42.584933"
     inkscape:cy="189.00054"
     inkscape:window-width="2560"
     inkscape:window-height="1369"
     inkscape:window-x="-8"
     inkscape:window-y="-8"
     inkscape:window-maximized="1"
     inkscape:current-layer="layer1" /><defs
     id="defs1" /><g
     inkscape:label="Layer 1"
     inkscape:groupmode="layer"
     id="layer1"
     transform="translate(-114.4973,-96.34983)"><path
       style="fill:#000000"
       d="m 137.46316,146.39113 c -19.30478,-1.62669 -29.68846,-24.12973 -18.12505,-39.27978 11.27559,-14.772948 31.59496,-14.257688 41.8689,1.06172 11.45758,17.08431 -2.77024,39.98538 -23.74385,38.21806 z m 7.67292,-4.5204 c 14.10608,-3.58622 20.68199,-19.95929 12.72324,-31.67906 -8.91317,-13.125224 -26.95354,-13.231277 -35.96548,-0.21143 -10.69956,15.45802 4.71038,36.60188 23.24224,31.89049 z M 124.35365,122.9511 c -2.92291,-3.15387 -1.22021,-3.52221 16.36439,-3.54008 16.49072,-0.0167 17.53898,0.22517 14.84556,3.42612 -1.00827,1.19827 -30.10658,1.30451 -31.20995,0.11396 z"
       id="path1" /></g></svg>
