<?xml version="1.0" encoding="UTF-8" standalone="no"?>
<!-- Created with Inkscape (http://www.inkscape.org/) -->

<svg
   width="46.419296mm"
   height="46.518974mm"
   viewBox="0 0 46.419297 46.518974"
   version="1.1"
   id="svg1"
   xml:space="preserve"
   inkscape:version="1.3.2 (091e20e, 2023-11-25, custom)"
   sodipodi:docname="plus-icon.svg"
   xmlns:inkscape="http://www.inkscape.org/namespaces/inkscape"
   xmlns:sodipodi="http://sodipodi.sourceforge.net/DTD/sodipodi-0.dtd"
   xmlns="http://www.w3.org/2000/svg"
   xmlns:svg="http://www.w3.org/2000/svg"><sodipodi:namedview
     id="namedview1"
     pagecolor="#505050"
     bordercolor="#eeeeee"
     borderopacity="1"
     inkscape:showpageshadow="0"
     inkscape:pageopacity="0"
     inkscape:pagecheckerboard="0"
     inkscape:deskcolor="#505050"
     inkscape:document-units="mm"
     inkscape:zoom="1.0449705"
     inkscape:cx="-42.584933"
     inkscape:cy="189.00054"
     inkscape:window-width="2560"
     inkscape:window-height="1369"
     inkscape:window-x="-8"
     inkscape:window-y="-8"
     inkscape:window-maximized="1"
     inkscape:current-layer="layer1" /><defs
     id="defs1" /><g
     inkscape:label="Layer 1"
     inkscape:groupmode="layer"
     id="layer1"
     transform="translate(-116.34772,-98.263212)"><path
       style="fill:#000000"
       d="m 135.34829,144.27437 c -18.05249,-3.85185 -25.17507,-25.12512 -12.80887,-38.25677 10.13021,-10.757262 26.29933,-10.256672 35.29822,1.09282 13.15189,16.58729 -1.95164,41.54607 -22.48935,37.16395 z m 8.76376,-3.79597 c 20.84891,-5.07469 19.01645,-35.62797 -2.30447,-38.42316 -21.37129,-2.801795 -30.00787,27.49798 -10.51315,36.88338 3.72757,1.79457 9.11292,2.44152 12.81762,1.53978 z m -5.61557,-5.69975 c -0.62269,-0.74646 -0.62269,-0.74646 -0.62269,-6.13911 0,-5.39265 0,-5.39265 -5.6367,-5.28869 -6.97025,0.12854 -7.59211,-0.0446 -7.59211,-2.11453 0,-1.63418 0.61001,-1.78883 7.17156,-1.81814 6.05673,-0.0271 6.05673,-0.0271 6.05699,-5.38298 3e-4,-6.10169 0.0965,-6.41098 1.99454,-6.41098 1.58514,0 1.6801,0.39198 1.57891,6.51804 -0.0877,5.30851 -0.0877,5.30851 5.92646,5.21498 6.3649,-0.099 6.45837,-0.0851 7.05721,1.04905 1.30678,2.47492 -0.16768,3.07268 -7.06445,2.86399 -5.88455,-0.17805 -5.88455,-0.17805 -5.88455,5.44288 0,6.79079 -0.88318,8.5853 -2.98517,6.06549 z"
       id="path1" /></g></svg>
