<?xml version="1.0" encoding="UTF-8" standalone="no"?>
<!-- Created with Inkscape (http://www.inkscape.org/) -->

<svg
   width="67.935974mm"
   height="65.96032mm"
   viewBox="0 0 67.935974 65.96032"
   version="1.1"
   id="svg1"
   xml:space="preserve"
   inkscape:version="1.3.2 (091e20e, 2023-11-25, custom)"
   sodipodi:docname="cable_weights.svg"
   xmlns:inkscape="http://www.inkscape.org/namespaces/inkscape"
   xmlns:sodipodi="http://sodipodi.sourceforge.net/DTD/sodipodi-0.dtd"
   xmlns="http://www.w3.org/2000/svg"
   xmlns:svg="http://www.w3.org/2000/svg"><sodipodi:namedview
     id="namedview1"
     pagecolor="#505050"
     bordercolor="#eeeeee"
     borderopacity="1"
     inkscape:showpageshadow="0"
     inkscape:pageopacity="0"
     inkscape:pagecheckerboard="0"
     inkscape:deskcolor="#505050"
     inkscape:document-units="mm"
     inkscape:zoom="2.0899411"
     inkscape:cx="194.74233"
     inkscape:cy="199.7664"
     inkscape:window-width="2560"
     inkscape:window-height="1369"
     inkscape:window-x="-8"
     inkscape:window-y="-8"
     inkscape:window-maximized="1"
     inkscape:current-layer="layer1" /><defs
     id="defs1" /><g
     inkscape:label="Layer 1"
     inkscape:groupmode="layer"
     id="layer1"
     transform="translate(-71.331375,-100.9419)"><path
       id="path1"
       style="fill:#000000"
       d="m 106.45603,100.94474 c -0.61263,0.0188 -1.26206,0.13048 -1.95802,0.3328 -1.12841,0.32808 -1.866,0.76397 -2.72334,1.6092 l -1.17564,1.15911 -12.468492,-0.16744 c -6.857416,-0.0921 -12.8718,-0.16718 -13.365076,-0.16691 -1.513952,8.5e-4 -1.980383,1.2824 -1.3255,3.64112 0.339312,1.22216 1.552069,2.53421 2.342492,2.53421 0.664613,0 0.719898,0.1473 0.902788,2.41278 0.122764,1.52055 0.07733,1.78207 -0.344165,1.98437 -0.660893,0.3172 -3.524155,3.93511 -4.363042,5.51284 -0.809156,1.52184 -0.855416,2.77784 -0.158646,4.31292 1.376874,3.0333 3.150706,4.1748 6.178434,3.97547 2.216537,-0.14603 3.282387,-0.69161 4.598169,-2.35438 0.485378,-0.61337 1.070475,-1.76214 1.300179,-2.5523 0.386502,-1.32953 0.383659,-1.52536 -0.03876,-2.63137 -0.457865,-1.19877 -3.938621,-5.63665 -4.798674,-6.11797 -0.363135,-0.20323 -0.475899,-0.69648 -0.541569,-2.36575 l -0.0832,-2.10891 0.767395,-0.15348 c 0.577458,-0.11549 0.905452,-0.43914 1.326017,-1.30793 0.307364,-0.63493 0.559139,-1.35533 0.559139,-1.60042 0,-0.39924 0.440964,-0.44545 4.233334,-0.44545 h 4.233333 v 28.83958 28.83959 h -3.718119 -3.166215 c 8.55e-4,0.47868 -0.0041,0.95747 -0.0093,1.43608 0.0093,0.40604 0.01953,0.81241 0.02687,1.21853 8.213831,0.1229 37.013558,0.16635 45.611688,0.0641 -0.0454,-0.49822 -0.0439,-0.58266 -0.0382,-1.24643 0.002,-0.18293 0.001,-0.36588 0.002,-0.54881 -0.005,-0.33943 -0.0311,-0.67698 -0.0532,-1.01492 l -1.52393,0.0377 c -1.72263,0.0429 -3.34047,0.14011 -3.59513,0.21601 -0.43902,0.13081 -0.46302,-1.36648 -0.46302,-28.85147 v -28.98996 h 4.23333 c 3.64687,0 4.23333,0.0566 4.23333,0.40979 0,0.79751 0.77922,1.90122 1.5751,2.23088 0.75723,0.31353 0.80615,0.42045 0.80615,1.75699 0,1.0995 -0.0921,1.42317 -0.40411,1.42317 -0.70781,0 -2.71764,2.25771 -3.02462,3.39773 -0.5491,2.03919 0.5837,4.8212 2.31769,5.69267 2.53047,1.27178 5.32372,0.37775 6.4301,-2.05827 0.6376,-1.40378 0.63098,-3.09482 -0.016,-4.36356 -0.54859,-1.07533 -1.93751,-2.40398 -2.51303,-2.40398 -0.72505,0 -0.98385,-0.73103 -0.79478,-2.24431 0.15887,-1.27155 0.29064,-1.53383 0.94206,-1.87069 1.51878,-0.78539 2.12355,-3.39805 0.97307,-4.20388 -0.51983,-0.3641 -2.01775,-0.39131 -13.03745,-0.23719 l -12.4504,0.17415 -0.65474,-0.77463 c -1.44101,-1.70509 -2.94786,-2.48779 -4.78576,-2.43138 z m 0.003,2.14509 c 1.19545,0.0368 2.04344,0.79845 3.29799,2.69131 1.25838,1.89845 0.78097,4.05718 -1.12964,5.10667 -4.04126,2.21973 -8.38939,-1.29849 -6.39961,-5.1785 0.69646,-1.35807 1.54673,-2.07208 2.89233,-2.42931 0.50365,-0.1337 0.94057,-0.20242 1.33893,-0.19017 z m -0.21135,2.70061 c -0.10528,-0.006 -0.21141,-0.003 -0.31678,0.0103 -0.50579,0.0623 -0.99364,0.34597 -1.28002,0.88108 -0.37467,0.70009 0.0626,1.83024 0.81597,2.10892 0.71793,0.26558 1.70544,0.0902 2.08824,-0.37104 0.15992,-0.19266 0.25301,-0.74433 0.20671,-1.22577 -0.0829,-0.86277 -0.77715,-1.3618 -1.51412,-1.40353 z m -29.12949,0.12764 c 1.663569,0 1.747101,0.0742 1.329118,1.17357 -0.217472,0.57199 -0.423992,0.67852 -1.313615,0.67852 -0.772811,0 -1.128592,-0.13691 -1.329118,-0.5116 -0.596456,-1.11451 -0.375134,-1.34049 1.313615,-1.34049 z m 56.98619,0.0718 c 0.15095,-9.1e-4 0.33244,0.027 0.54828,0.0811 0.71928,0.18053 0.89094,0.84695 0.35605,1.38183 -0.61123,0.61123 -1.53427,0.24122 -1.53427,-0.61495 0,-0.58382 0.17709,-0.84528 0.62994,-0.84801 z m -42.169523,0.45734 h 3.373437 3.373438 v 19.11615 19.11614 l -0.661458,0.0713 c -2.04737,0.22087 -2.418194,0.37317 -2.922303,1.19993 -0.339201,0.55633 -0.515596,1.32515 -0.516247,2.24741 -8.2e-4,1.16285 0.113843,1.50767 0.672827,2.02572 l 0.673861,0.62476 -0.673861,0.67386 c -0.97107,0.97108 -1.024443,2.63725 -0.12454,3.90106 l 0.54622,0.76688 -0.547771,0.69659 c -0.651004,0.82764 -0.724139,2.42652 -0.160713,3.51607 0.463138,0.89564 0.870042,1.07745 2.412772,1.07745 h 1.168921 v 1.45521 1.45521 H 95.241732 91.93444 v -28.97188 z m 21.427633,0 h 3.44113 3.44165 v 28.80289 28.80238 l -1.38906,0.16691 v 5.2e-4 c -0.76398,0.0917 -2.25861,0.16798 -3.32124,0.16898 l -1.93219,0.002 0.0801,-1.38906 0.0801,-1.38907 1.42886,-0.13229 c 1.14257,-0.10581 1.53055,-0.26929 1.93734,-0.81648 0.81524,-1.09652 0.90612,-2.68049 0.21756,-3.79461 l -0.58239,-0.94154 0.54984,-0.69918 c 0.80246,-1.02016 0.75044,-2.76273 -0.10697,-3.57601 -0.66835,-0.63396 -0.87512,-1.28468 -0.40825,-1.28468 0.44634,0 1.06505,-1.51756 1.06505,-2.61224 0,-1.57923 -1.14277,-2.62596 -2.98328,-2.73213 l -1.38234,-0.0796 -0.0682,-19.24843 z m -12.69638,4.96559 0.99218,0.894 c 0.5457,0.49173 1.4982,1.06016 2.11667,1.26349 l 1.12448,0.37 0.0661,12.19461 c 0.0723,13.32753 0.0339,16.7768 -0.20051,18.08158 -0.0849,0.47295 -0.29754,0.83674 -0.47284,0.80874 -0.17531,-0.028 -1.06299,-0.093 -1.97249,-0.1447 l -1.65364,-0.0941 v -16.68684 z m 10.48153,0.71158 v 5.2e-4 c 0.044,-0.006 0.0825,-0.001 0.11214,0.0176 0.2544,0.15723 0.33178,28.2247 0.0858,31.01568 -0.10424,1.18144 -0.28232,1.89898 -0.46354,1.86758 -0.16183,-0.028 -1.02142,-0.0931 -1.91048,-0.14417 l -1.61644,-0.093 -0.16743,-1.77405 c -0.0922,-0.97585 -0.1685,-7.93619 -0.1695,-15.46676 l -0.002,-13.69219 0.59531,-0.006 c 0.77436,-0.008 2.61162,-0.84739 3.07268,-1.40456 0.1488,-0.17977 0.33142,-0.30167 0.46354,-0.3204 z m 23.22184,2.26033 c 1.03474,0 2.42469,1.23418 2.67528,2.37556 0.19422,0.88426 -0.40419,2.23147 -1.1746,2.64377 -1.27839,0.68418 -2.85135,0.10592 -3.5879,-1.31826 -0.57204,-1.10646 -0.49517,-1.60728 0.41755,-2.71457 0.63319,-0.76818 1.00257,-0.9865 1.66967,-0.9865 z m -56.534538,1.56735 1.466061,1.79575 c 0.806252,0.98784 1.733107,2.31074 2.059306,2.93936 0.5191,1.0004 0.555265,1.26784 0.291971,2.14664 -0.444188,1.48248 -1.207777,2.29761 -2.59674,2.77089 -1.454814,0.49573 -1.275672,0.49351 -2.557984,0.0356 -1.712997,-0.61078 -3.083532,-2.24591 -3.083532,-3.67884 0,-0.65971 2.494851,-4.2458 3.759977,-5.40432 z m -0.658357,19.03656 c -0.0017,0.0169 -0.0017,0.0344 10e-4,0.0532 0.03496,0.0167 0.07007,0.0332 0.104386,0.0512 -0.0031,-0.0295 -0.0054,-0.0612 -0.0083,-0.092 -0.03014,-0.007 -0.06646,-0.007 -0.09715,-0.0124 z m 29.156355,11.89901 c 1.09266,0.008 2.36863,0.0745 4.9134,0.20826 4.73997,0.24908 4.81968,0.28229 4.25349,1.77147 l -0.26872,0.70693 h -9.12968 -9.129671 l -0.161231,-0.64234 c -0.08867,-0.3533 -0.08279,-0.88908 0.01292,-1.19062 0.146518,-0.46166 0.390549,-0.54847 1.545126,-0.5488 0.754164,-2.2e-4 2.621646,-0.0713 4.149616,-0.15813 1.81279,-0.10297 2.72222,-0.15448 3.81475,-0.14677 z m 0.0507,0.4377 c -0.7258,0 -1.14718,0.77272 -0.709,1.3007 0.19128,0.23048 0.42236,0.41696 0.51366,0.41496 0.92116,-0.0225 1.11394,-1.71566 0.19534,-1.71566 z m -0.0269,4.51136 c 4.84883,-0.007 8.89595,0.0662 8.99325,0.16329 0.0973,0.0971 0.24224,0.66268 0.32194,1.25678 l 0.14521,1.08003 -3.80545,0.0351 c -9.45953,0.0871 -14.799793,0.0875 -15.046629,0.009 -0.426601,-0.14052 -0.309676,-1.79645 0.153996,-2.18126 0.330343,-0.27413 2.330629,-0.35247 9.237683,-0.36277 z m -0.12609,0.11885 c -0.61955,0 -0.95956,0.94704 -0.5271,1.46813 0.40697,0.49033 0.64561,0.48326 1.16065,-0.0315 0.52038,-0.52038 0.11615,-1.43661 -0.63355,-1.43661 z m -5.68803,4.81728 c 5.06346,-0.0226 14.48357,0.17645 14.69109,0.38396 0.1475,0.1475 0.3388,0.7045 0.4253,1.23765 l 0.15761,0.96945 h -9.41183 c -6.37126,0 -9.468093,-0.0909 -9.585974,-0.28164 -0.30255,-0.48956 0.136536,-2.06241 0.615467,-2.20503 0.217172,-0.0647 1.420547,-0.0969 3.108337,-0.10439 z m 5.68906,0.22428 c -0.28769,0.0268 -0.57211,0.20291 -0.67024,0.51211 -0.0917,0.28974 -0.0941,0.64693 -0.002,0.79375 0.42199,0.68182 1.65694,-0.15224 1.36219,-0.92036 -0.11118,-0.28972 -0.40219,-0.41227 -0.68988,-0.3855 z m 5.28236,4.46226 v 1.46554 1.46606 h -2.12493 c -2.34945,0 -2.40467,-0.041 -2.30425,-1.71979 l 0.0636,-1.05834 2.18281,-0.077 z m -10.84791,0.0212 h 2.1115 c 2.00301,0 2.11974,0.0323 2.26962,0.62942 0.0869,0.34621 0.11927,0.97129 0.0713,1.38906 -0.0861,0.75377 -0.1022,0.76043 -2.08308,0.83613 -1.09794,0.042 -2.08022,-0.008 -2.18281,-0.11059 -0.10255,-0.1026 -0.18655,-0.76168 -0.18655,-1.46503 z" /></g></svg>
