<?xml version="1.0" encoding="UTF-8" standalone="no"?>
<!-- Created with Inkscape (http://www.inkscape.org/) -->

<svg
   width="196"
   height="196"
   viewBox="0 0 51.858335 51.858331"
   version="1.1"
   id="svg1"
   xml:space="preserve"
   inkscape:version="1.3.2 (091e20e, 2023-11-25, custom)"
   sodipodi:docname="glutey00.svg"
   xmlns:inkscape="http://www.inkscape.org/namespaces/inkscape"
   xmlns:sodipodi="http://sodipodi.sourceforge.net/DTD/sodipodi-0.dtd"
   xmlns="http://www.w3.org/2000/svg"
   xmlns:svg="http://www.w3.org/2000/svg"><sodipodi:namedview
     id="namedview1"
     pagecolor="#505050"
     bordercolor="#eeeeee"
     borderopacity="1"
     inkscape:showpageshadow="0"
     inkscape:pageopacity="0"
     inkscape:pagecheckerboard="0"
     inkscape:deskcolor="#505050"
     inkscape:document-units="mm"
     inkscape:zoom="1.0449705"
     inkscape:cx="314.84141"
     inkscape:cy="332.54526"
     inkscape:window-width="2560"
     inkscape:window-height="1369"
     inkscape:window-x="-8"
     inkscape:window-y="-8"
     inkscape:window-maximized="1"
     inkscape:current-layer="layer1" /><defs
     id="defs1" /><g
     inkscape:label="Layer 1"
     inkscape:groupmode="layer"
     id="layer1"
     transform="translate(-21.841886,-60.392538)"><g
       id="g5"
       transform="matrix(0.31640622,0,0,0.33830734,16.703356,40.974089)"><path
         style="fill:#000000"
         d="M 91.634514,206.94336 C 84.51131,206.0126 82.457941,205.64948 78.140765,204.55708 67.836793,201.94982 60.66987,198.27221 49.558757,189.8906 44.493995,186.07002 37.831856,178.79371 33.897411,172.78546 26.080785,160.84876 22.369665,149.38022 21.883524,135.65872 c -0.396901,-11.20267 2.037017,-21.85194 7.589133,-33.20521 2.292254,-4.687323 4.905152,-8.8562 8.282056,-13.214011 3.502006,-4.519253 7.043342,-8.025606 12.23001,-12.109198 7.346202,-5.783845 14.824571,-9.912572 23.095591,-12.750825 9.744078,-3.343743 14.116552,-3.998495 26.623992,-3.986785 l 8.466664,0.0079 4.48801,0.870967 c 6.41851,1.245612 14.10772,3.893327 20.88025,7.189944 3.33513,1.623415 10.66933,6.452384 14.39257,9.476324 2.89336,2.349935 6.65187,6.149793 9.59412,9.699669 2.30514,2.781191 7.78466,10.399662 7.79082,10.831989 0.002,0.163111 0.26932,0.828581 0.59331,1.478824 4.52935,9.090142 6.56156,15.378642 7.86362,24.333302 1.00455,6.90854 0.87974,13.99577 -0.3844,21.82812 -0.6252,3.8736 -2.12045,10.02176 -2.99719,12.3238 -2.2438,5.89154 -7.31623,14.7241 -10.66297,18.56733 -0.6648,0.76342 -1.88125,2.16115 -2.70322,3.10606 -8.02428,9.22445 -17.3278,15.90837 -29.93721,21.50776 -4.40227,1.95489 -11.29326,3.73724 -18.52083,4.7904 -7.0674,1.02983 -11.97695,1.18589 -16.933336,0.53825 z m 13.435126,-7.39214 c 4.87426,-0.50211 7.49154,-0.97466 11.75061,-2.12158 7.14166,-1.92318 13.38641,-4.71673 19.34568,-8.65419 6.31506,-4.17253 9.3841,-6.83294 14.41993,-12.49994 5.77179,-6.4952 9.98829,-13.47666 12.62019,-20.89583 1.59024,-4.4828 2.09071,-6.57317 2.91617,-12.18034 l 0.70111,-4.7625 -0.13016,-5.95312 c -0.11092,-5.07353 -0.22913,-6.4027 -0.8,-8.99583 -3.28138,-14.9055 -7.07105,-22.73996 -16.4304,-33.966917 -6.7381,-8.082651 -18.06662,-15.265186 -30.0733,-19.067145 -5.37345,-1.701521 -9.79195,-2.508566 -15.92931,-2.909512 -9.820355,-0.641551 -16.158119,-0.05196 -24.393353,2.269281 -8.458918,2.384286 -19.49569,8.214971 -25.98702,13.728845 -1.205355,1.023854 -2.035003,1.550239 -2.248958,1.426891 -0.186461,-0.107498 -0.253188,-0.100451 -0.148281,0.01566 0.104907,0.116111 -0.954654,1.415121 -2.354579,2.88669 -2.569727,2.701236 -4.259743,4.757729 -5.261895,6.402922 -0.300612,0.493503 -0.785957,1.166426 -1.078544,1.495385 -0.821295,0.923388 -3.458242,5.02471 -3.654807,5.68443 -0.09642,0.32363 -0.43617,0.79988 -0.754991,1.05834 -0.31882,0.25845 -0.620288,0.70279 -0.669928,0.98742 -0.04964,0.28462 -0.47947,1.29666 -0.955177,2.24896 -0.475707,0.9523 -1.076492,2.3863 -1.335078,3.18666 -0.258586,0.80037 -0.709866,1.93146 -1.002844,2.51354 -0.672425,1.33597 -2.443049,8.08215 -3.124951,11.90625 -0.673979,3.77968 -0.977582,13.92653 -0.530649,17.73504 1.146593,9.7706 3.025023,15.80186 7.354736,23.61454 3.123669,5.63646 6.039698,9.45504 11.061301,14.48492 4.902987,4.91107 8.475651,7.82925 12.968354,10.59263 12.464878,7.66694 28.768919,11.30929 43.726144,9.7685 z M 93.883473,179.85434 c -3.024136,-0.27311 -7.676921,-1.38971 -9.373768,-2.24957 -1.657509,-0.83992 -3.846809,-3.01436 -4.242688,-4.21389 -0.420101,-1.27291 0.03236,-2.83737 1.074137,-3.71397 0.989182,-0.83234 1.799208,-1.05413 3.175672,-0.8695 1.334521,0.17899 2.254129,0.78103 2.921939,1.91288 0.747304,1.26659 1.924527,1.43414 10.545749,1.50094 8.526116,0.0661 10.310816,-0.14963 12.303126,-1.48688 2.85798,-1.91831 3.73398,-2.10988 5.18639,-1.1342 1.03022,0.69208 1.73928,2.35183 1.46743,3.43495 -0.0963,0.38375 -0.83109,1.47095 -1.63283,2.416 -2.68253,3.16201 -6.2128,4.27184 -14.28141,4.4897 -2.619373,0.0707 -5.83406,0.0318 -7.143747,-0.0865 z m 38.496877,-21.97823 c -3.27398,-0.41161 -7.43521,-1.9953 -10.05604,-3.82716 -3.42302,-2.39256 -6.99685,-6.54292 -8.77923,-10.19552 -4.98168,-10.20882 -2.09627,-23.45221 6.51203,-29.88879 5.62264,-4.20415 14.27403,-5.76394 21.8859,-3.9459 4.42622,1.05717 9.06615,4.0108 11.89717,7.57334 1.9995,2.51616 4.35369,7.25514 4.90042,9.86456 0.56842,2.71289 0.35425,9.29324 -0.40139,12.33318 -0.70947,2.85416 -1.76316,5.2294 -2.2065,4.97393 -0.18521,-0.10672 -0.25163,-0.0998 -0.14761,0.0155 0.2578,0.28557 -0.28574,1.25154 -0.59625,1.05964 -0.13655,-0.0844 -0.18626,0.008 -0.11047,0.20567 0.17295,0.4507 -1.39449,2.65469 -1.7373,2.44283 -0.13892,-0.0859 -0.18752,0.0135 -0.10799,0.22071 0.0885,0.23068 -0.68296,1.2511 -1.98916,2.63101 -1.66391,1.7578 -2.60055,2.49702 -4.25354,3.357 -4.71804,2.4546 -10.57574,3.71237 -14.81004,3.18004 z m 22.0927,-11.10489 c -0.0899,-0.14552 -0.30532,-0.26276 -0.47863,-0.26053 -0.18934,0.002 -0.15671,0.10642 0.0818,0.26053 0.50829,0.32848 0.59989,0.32848 0.39687,0 z m 2.19281,-3.21117 c -0.0661,-0.19816 -0.18599,-0.0782 -0.27955,0.27954 -0.11509,0.4401 -0.0807,0.5434 0.11569,0.34706 0.15375,-0.15375 0.22748,-0.43572 0.16386,-0.6266 z m -18.0357,-8.59048 c 2.00457,-0.94588 2.8448,-2.29057 2.96909,-4.75168 0.11824,-2.34155 -0.24894,-3.55384 -1.49373,-4.93166 -1.3795,-1.52695 -2.76481,-2.15413 -4.72845,-2.14077 -3.34106,0.0227 -6.16097,2.37593 -6.17025,5.14902 -8.1e-4,0.24254 -0.12903,0.48349 -0.28494,0.53546 -0.39944,0.13315 0.18547,2.43973 0.96766,3.81593 0.85488,1.50409 2.28462,2.69034 3.47734,2.88513 0.54881,0.0896 1.17643,0.19888 1.39472,0.2428 0.83861,0.1687 2.56901,-0.19103 3.86856,-0.80423 z m -80.465436,22.7507 c -0.291041,-0.0744 -1.235329,-0.30929 -2.098417,-0.52191 -1.981376,-0.48809 -5.401957,-2.01434 -7.29429,-3.25467 -3.519368,-2.30679 -7.598873,-7.03749 -9.29549,-10.77929 -3.164163,-6.97842 -2.585242,-16.00077 1.474387,-22.97798 1.449621,-2.49144 5.056036,-6.08555 7.358964,-7.33387 4.503654,-2.44122 8.368378,-3.41553 13.691305,-3.45162 2.903936,-0.0197 3.990943,0.0862 5.812887,0.56598 3.937325,1.03695 8.996374,3.93139 11.279504,6.45336 3.072535,3.39396 5.595668,8.42519 6.217723,12.39837 0.367038,2.34434 0.172581,7.00173 -0.404869,9.69693 -0.799953,3.73371 -2.503694,7.08292 -5.680173,11.16606 -3.932201,5.05458 -9.931815,7.86842 -17.225072,8.07864 -1.819011,0.0524 -3.545417,0.0344 -3.836459,-0.04 z m 5.2027,-22.16643 c 2.368647,-0.84604 3.927436,-3.09941 4.118859,-5.95419 0.156486,-2.33376 -0.553579,-3.71218 -2.665096,-5.17365 -1.292316,-0.89446 -1.756898,-1.06187 -3.202235,-1.1539 -2.859503,-0.18208 -5.644045,1.47614 -6.252111,3.72318 -0.939355,3.47129 1.008093,7.7894 3.905159,8.65898 1.117803,0.33552 3.004437,0.28926 4.095424,-0.10042 z m 34.08621,-6.74866 c -3.592466,-1.13751 -5.430311,-4.68616 -4.089237,-7.8958 0.553724,-1.32525 1.085567,-1.86136 2.616816,-2.63785 1.054216,-0.53459 1.589021,-0.64063 2.792048,-0.55361 2.180989,0.15776 3.427159,0.90613 4.304089,2.58477 1.24493,2.38307 0.8914,5.10248 -0.91949,7.07289 -1.0441,1.13609 -3.384747,1.8474 -4.704226,1.4296 z m -1.408429,-22.80926 c -2.281475,-0.29967 -5.438263,-1.60257 -6.900509,-2.84804 -3.110601,-2.64945 -5.164164,-6.378919 -5.75231,-10.446737 l -0.335999,-2.323887 0.46776,-2.296246 c 0.71136,-3.49209 2.164998,-6.264217 4.519399,-8.618618 3.001466,-3.001466 5.891542,-4.143171 10.496779,-4.146681 4.695175,-0.0036 6.950945,0.906704 10.189225,4.111699 1.72498,1.707253 2.36105,2.569308 3.24167,4.393395 0.60258,1.248157 1.22832,2.974563 1.39052,3.836458 0.34963,1.857781 0.1475,6.080929 -0.37288,7.7906 -0.59654,1.959929 -2.98781,5.656527 -4.64951,7.187557 -2.79733,2.57736 -7.81483,3.94885 -12.294145,3.3605 z m 4.748145,-11.324628 c 0.59898,-0.272006 1.43242,-0.944732 1.85209,-1.494947 l 0.76303,-1.000391 v -1.892001 c 0,-1.621257 -0.10416,-2.049401 -0.7279,-2.991931 -1.51796,-2.293796 -4.706589,-2.988108 -7.149115,-1.556692 -1.796836,1.053016 -2.177149,1.760269 -2.177149,4.048757 v 1.906161 l 0.797289,1.148299 c 1.489108,2.144695 4.266908,2.911209 6.641755,1.832745 z m -39.321334,3.086691 c -2.319184,-1.239712 -3.631583,-3.788836 -3.352576,-6.511838 0.335297,-3.27236 3.504383,-5.612756 6.522784,-4.817128 2.258599,0.595349 3.900092,2.473641 4.496748,5.14544 0.343129,1.536516 0.0748,2.575986 -1.151768,4.461792 -1.42019,2.183492 -4.251592,2.931732 -6.515188,1.721734 z m 69.642364,0.169079 c -1.50588,-0.768183 -3.17805,-2.870938 -3.38604,-4.257945 -0.54119,-3.608875 1.70906,-6.728704 5.1469,-7.135865 3.89972,-0.461864 6.03269,1.77505 5.8144,6.097753 -0.0851,1.684648 -0.21965,2.153926 -0.89206,3.110647 -1.45645,2.072278 -4.77666,3.157987 -6.6832,2.18541 z M 48.639725,86.975388 c 0.263389,-0.291042 0.419358,-0.529167 0.346598,-0.529167 -0.07276,0 -0.347792,0.238125 -0.611181,0.529167 -0.263389,0.291042 -0.419358,0.529167 -0.346598,0.529167 0.07276,0 0.347792,-0.238125 0.611181,-0.529167 z m 1.322917,-1.322917 c 0.263389,-0.291041 0.419358,-0.529166 0.346597,-0.529166 -0.07276,0 -0.347792,0.238125 -0.611181,0.529166 -0.263389,0.291042 -0.419358,0.529167 -0.346597,0.529167 0.07276,0 0.347792,-0.238125 0.611181,-0.529167 z"
         id="path1" /><path
         style="fill:#800080;stroke-width:0.956965"
         d="m 350.72759,754.48653 c -1.57899,-0.2186 -6.96192,-0.85405 -11.96206,-1.41212 -38.18469,-4.26182 -80.60287,-19.11133 -110.77816,-38.78057 -21.68046,-14.13203 -45.04191,-35.43024 -64.46655,-58.77297 -10.58251,-12.71708 -22.94595,-33.11731 -31.87207,-52.59036 -12.15591,-26.5191 -18.72691,-58.6044 -18.72691,-91.44104 0,-30.62418 2.42483,-49.11128 9.91901,-75.62327 4.41598,-15.62233 15.77834,-43.28951 20.8165,-50.68788 1.07527,-1.57899 4.90124,-7.39255 8.50216,-12.91902 10.2359,-15.70945 18.19432,-26.23876 27.39773,-36.24833 4.66749,-5.07633 9.40958,-10.40894 10.53799,-11.85025 1.12842,-1.4413 2.4238,-2.62055 2.87864,-2.62055 0.45484,0 4.6992,-3.07087 9.43192,-6.82414 34.91734,-27.69114 77.66172,-47.70962 119.21286,-55.83096 33.0928,-6.46813 79.09688,-5.08685 113.6272,3.41167 44.75508,11.015 89.09682,35.26115 118.84434,64.9843 22.05871,22.04065 45.5841,57.30017 56.3638,84.47727 8.08521,20.38394 16.72415,53.24765 18.26298,69.47486 0.53034,5.59254 0.96461,18.10515 0.96505,27.80579 0.002,42.64243 -10.668,81.81932 -32.02546,117.58811 -11.68573,19.57092 -29.99085,42.43822 -46.18402,57.69448 -38.61592,36.38169 -90.17817,60.89156 -143.80554,68.35729 -10.37539,1.4444 -50.38783,2.71471 -56.93941,1.80769 z m 47.84824,-75.07151 c 21.47712,-2.42192 32.78875,-8.21769 41.38201,-21.20297 3.35769,-5.07383 2.70098,-11.10258 -1.70452,-15.64792 -5.72022,-5.90175 -6.43557,-5.78672 -24.89186,4.00262 -6.66464,3.53498 -18.41664,4.47916 -47.80091,3.84047 -13.94777,-0.30316 -26.96625,-1.01713 -28.92996,-1.58658 -2.22539,-0.64534 -4.56388,-2.33793 -6.20771,-4.49308 -2.99328,-3.9244 -8.81536,-6.93695 -13.46642,-6.968 -4.91261,-0.0328 -10.42426,3.28824 -12.62878,7.60946 -2.33083,4.5688 -2.4311,7.76444 -0.37928,12.08833 1.979,4.17043 11.19222,12.62453 16.15632,14.82511 5.02487,2.22754 16.29148,5.27035 25.83805,6.97818 9.17703,1.64172 40.10222,1.96745 52.63306,0.55438 z M 238.59808,596.16548 c 32.85564,-2.66796 54.38692,-16.38311 71.59089,-45.60248 9.02525,-15.32856 12.12407,-26.41864 12.92117,-46.24256 0.62273,-15.48686 -0.23147,-20.90441 -5.41558,-34.34726 -3.00802,-7.80004 -10.73953,-20.93379 -16.3931,-27.84741 -8.27878,-10.12394 -30.08297,-22.94966 -45.74144,-26.90615 -7.21086,-1.82199 -9.84598,-1.98706 -24.4026,-1.52865 -18.38035,0.57884 -25.39884,2.03569 -39.87615,8.27719 -18.33447,7.90443 -34.18241,24.02011 -41.93558,42.64406 -5.36143,12.87873 -6.94509,20.62068 -7.4374,36.35884 -0.38106,12.18145 -0.145,15.73072 1.55933,23.44564 3.25868,14.7509 9.58872,26.50999 21.97216,40.81688 12.33571,14.25172 29.29788,24.6452 48.18812,29.527 10.45047,2.7007 9.60096,2.65291 24.97018,1.4049 z m 286.73086,-0.50335 c 9.64857,-1.8303 22.35791,-6.22478 30.88565,-10.67927 7.64448,-3.99312 17.64945,-12.88027 21.92016,-19.47109 1.68586,-2.60173 3.40516,-4.73041 3.82066,-4.73041 0.41551,0 1.93719,-2.04551 3.3815,-4.54558 1.44433,-2.50007 2.86205,-4.7609 3.15048,-5.02407 4.27639,-3.90173 9.03855,-15.84797 11.17442,-28.03192 2.15901,-12.31604 2.15778,-35.50482 -0.002,-43.74044 -2.19333,-8.36226 -10.93331,-25.80275 -16.86378,-33.6514 -13.79302,-18.25434 -35.55092,-29.91281 -60.72223,-32.53662 -25.86666,-2.69628 -54.29548,5.19765 -71.75318,19.92398 -29.25964,24.68177 -39.08169,71.69725 -22.58095,108.08886 4.24123,9.35384 10.83793,18.71504 19.89486,28.23234 21.22433,22.30314 48.90816,31.62635 77.69476,26.16562 z M 380.43065,485.58105 c 12.44705,-5.19481 16.03683,-24.34737 6.5348,-34.86499 -5.85001,-6.47525 -16.22156,-7.98598 -24.75428,-3.60575 -5.61613,2.88302 -7.53014,4.81153 -9.53315,9.60542 -3.19172,7.63885 -1.29664,17.41991 4.55758,23.523 6.9376,7.23252 14.49526,8.97321 23.19505,5.34232 z m 8.06345,-86.66706 c 14.6885,-3.8668 24.35508,-11.60537 33.09614,-26.49511 5.48505,-9.34336 6.93228,-14.28848 7.70539,-26.3289 0.7563,-11.77868 -0.65367,-18.39267 -6.43542,-30.18754 -5.01515,-10.23098 -16.70692,-22.31541 -25.93924,-26.81039 -15.06284,-7.33369 -40.56823,-6.04714 -54.25691,2.73686 -7.6176,4.8882 -17.64821,16.16283 -21.49524,24.16113 -3.50907,7.29568 -7.26601,20.92639 -7.27766,26.40445 -0.0103,4.84158 2.78665,17.2715 5.25122,23.33682 7.93423,19.52627 25.15491,33.01952 44.98272,35.24617 7.76864,0.87241 15.79994,0.19235 24.369,-2.06349 z M 246.24692,371.23332 c 4.99618,-1.38737 10.60778,-6.71178 13.66972,-12.97017 2.99484,-6.12123 2.80086,-11.86861 -0.63163,-18.71445 -9.25376,-18.45592 -31.59508,-18.09698 -38.7441,0.62247 -4.38492,11.48173 2.76096,26.4867 14.63124,30.72278 4.42183,1.57799 6.39633,1.6385 11.07477,0.33937 z m 266.64913,-2.64466 c 3.46679,-1.70721 6.20521,-3.96627 8.1342,-6.71033 2.5789,-3.66859 2.94627,-5.05094 3.2465,-12.21589 0.30132,-7.19113 0.0596,-8.64937 -2.19932,-13.26638 -1.59218,-3.2543 -3.74416,-5.93273 -5.7751,-7.18792 -7.47115,-4.61742 -20.06491,-3.02969 -26.64311,3.35896 -4.90885,4.76742 -6.60962,8.5392 -7.13,15.81208 -0.53138,7.42687 1.22866,11.68615 7.22693,17.48912 7.01447,6.78607 13.36715,7.53291 23.1399,2.72036 z"
         id="path2"
         transform="scale(0.26458333)" /><path
         style="fill:#e3dbdb;stroke-width:0.956965"
         d="m 222.49431,511.59291 c -4.25618,-1.87583 -8.10837,-6.13632 -10.9018,-12.0573 -1.98798,-4.21373 -2.4844,-6.70847 -2.48943,-12.51042 -0.008,-9.12684 2.46178,-13.41253 10.14501,-17.60486 4.29928,-2.3459 6.2777,-2.81934 11.8589,-2.83789 7.53118,-0.025 10.66046,1.25436 16.95035,6.93002 4.72056,4.25959 6.49707,8.16564 6.48995,14.2696 -0.0175,14.99556 -9.51979,25.1724 -23.4403,25.10426 -3.15798,-0.0155 -7.03369,-0.5975 -8.61268,-1.29341 z"
         id="path3"
         transform="scale(0.26458333)" /><path
         style="fill:#e3dbdb;stroke-width:0.956965"
         d="m 363.84423,357.26486 c -1.73348,-0.85434 -4.90141,-3.53599 -7.03987,-5.95924 l -3.88809,-4.40589 0.41813,-8.07271 0.41813,-8.07271 4.09516,-3.63414 c 8.56052,-7.5968 20.48499,-7.27348 27.98748,0.75884 3.56684,3.81874 4.60646,7.10594 4.60646,14.56534 0,6.12809 -0.1659,6.59635 -3.58862,10.12923 -1.97374,2.03727 -4.97435,4.28554 -6.66802,4.99617 -4.16819,1.74887 -12.48864,1.59363 -16.34076,-0.30489 z"
         id="path4"
         transform="scale(0.26458333)" /><path
         style="fill:#e3dbdb;stroke-width:0.956965"
         d="m 504.79892,512.10049 c -6.82881,-1.78147 -12.60001,-7.60813 -15.67432,-15.82495 -2.26875,-6.0638 -2.43276,-7.50883 -1.12485,-9.91118 0.49758,-0.91393 1.14496,-3.1802 1.43863,-5.03614 1.29008,-8.153 11.59137,-15.27728 22.05929,-15.25601 6.74594,0.0137 12.07919,2.14792 16.55682,6.62555 5.29673,5.29672 6.3929,8.25342 6.40207,17.26821 0.0112,11.00724 -2.38389,15.51011 -10.34628,19.45152 -5.88564,2.91342 -14.06959,4.05044 -19.31136,2.683 z"
         id="path5"
         transform="scale(0.26458333)" /></g></g></svg>
