<?xml version="1.0" encoding="UTF-8" standalone="no"?>
<!-- Created with Inkscape (http://www.inkscape.org/) -->

<svg
   width="74.254326mm"
   height="76.104561mm"
   viewBox="0 0 74.254326 76.104561"
   version="1.1"
   id="svg1"
   xml:space="preserve"
   inkscape:version="1.3.2 (091e20e, 2023-11-25, custom)"
   sodipodi:docname="reps-icon.svg"
   xmlns:inkscape="http://www.inkscape.org/namespaces/inkscape"
   xmlns:sodipodi="http://sodipodi.sourceforge.net/DTD/sodipodi-0.dtd"
   xmlns="http://www.w3.org/2000/svg"
   xmlns:svg="http://www.w3.org/2000/svg"><sodipodi:namedview
     id="namedview1"
     pagecolor="#505050"
     bordercolor="#eeeeee"
     borderopacity="1"
     inkscape:showpageshadow="0"
     inkscape:pageopacity="0"
     inkscape:pagecheckerboard="0"
     inkscape:deskcolor="#505050"
     inkscape:document-units="mm"
     inkscape:zoom="1.0449705"
     inkscape:cx="185.17268"
     inkscape:cy="160.2916"
     inkscape:window-width="2560"
     inkscape:window-height="1369"
     inkscape:window-x="-8"
     inkscape:window-y="-8"
     inkscape:window-maximized="1"
     inkscape:current-layer="layer1" /><defs
     id="defs1" /><g
     inkscape:label="Layer 1"
     inkscape:groupmode="layer"
     id="layer1"
     transform="translate(-64.728294,-108.37366)"><path
       style="fill:#000000"
       d="m 94.871841,184.38527 c -19.755802,-0.15143 -18.506634,-0.044 -22.219841,-1.91061 -3.631023,-1.82528 -6.567774,-5.30298 -7.548015,-8.93837 -0.572111,-2.12177 -0.458638,-52.36396 0.122782,-54.36397 1.365945,-4.69869 4.403838,-8.02033 9.007574,-9.84892 2.007706,-0.79746 49.741979,-1.33729 53.173549,-0.60135 5.24248,1.12431 9.57501,5.45381 10.98861,10.98093 0.70955,2.77434 0.809,51.20172 0.11002,53.58118 -1.44642,4.9239 -5.2266,8.60106 -10.69405,10.4026 -2.47681,0.81612 -6.49102,0.90124 -32.940629,0.69851 z m 33.261299,-5.20289 c 6.31383,-3.03349 6.67323,-4.19427 6.76359,-21.84515 l 0.0728,-14.22135 h -4.27381 c -4.27381,0 -4.27381,0 -4.09578,-1.11333 0.39491,-2.46968 0.34581,-2.44154 4.52272,-2.59084 3.70125,-0.13229 3.70125,-0.13229 3.83355,-3.175 0.7223,-16.613 -1.08917,-21.67162 -8.44852,-23.59286 -2.42244,-0.63241 -45.576087,-0.71681 -48.511088,-0.0949 -7.018353,1.48719 -9.071005,5.14268 -9.289886,16.544 -0.212422,11.06492 -0.482757,10.28982 3.619397,10.37747 3.443242,0.0736 3.443242,0.0736 3.75908,0.99962 0.878051,2.57445 1.142569,2.38125 -3.26026,2.38125 H 68.89192 l -0.147723,13.71111 c -0.205777,19.09948 0.595633,21.35376 8.338265,23.45465 3.989239,1.08244 48.577798,0.35341 51.050678,-0.83468 z m -6.54164,-3.6961 c -0.68286,-0.68286 -0.92278,-1.57094 -0.92278,-3.41575 0,-1.70257 0,-1.70257 -3.57188,-1.70257 -3.57187,0 -3.57187,0 -3.57187,1.74015 0,4.47027 -3.93294,4.38102 -4.18467,-0.095 -0.12284,-2.18417 -6.92603,-2.81084 -6.92931,-0.63829 -0.007,4.3155 -3.405524,4.79234 -3.926815,0.55088 -0.229264,-1.86539 -7.975796,-2.35028 -7.979204,-0.49944 -0.0079,4.30575 -3.872549,4.79151 -4.181122,0.52554 -0.114567,-1.58388 -0.114567,-1.58388 -2.177794,-1.58388 -1.134774,0 -2.235871,-0.0662 -2.446881,-0.14722 -0.309998,-0.11896 -0.407523,0.26508 -0.507976,2.00034 -0.26997,4.66358 -4.178732,4.75894 -4.178732,0.10195 0,-1.95507 0,-1.95507 -2.52563,-1.95507 -3.91249,0 -3.85762,-3.52537 0.05677,-3.64766 2.425934,-0.0758 2.425934,-0.0758 2.445392,-3.175 0.02075,-3.30497 0.312035,-4.02525 1.627827,-4.02525 1.790516,0 2.364388,1.06262 2.364388,4.37807 0,2.50109 0,2.50109 2.596571,2.50109 2.59657,0 2.59657,0 2.482438,-1.57786 -0.185797,-2.56862 0.363265,-3.44922 2.150611,-3.44922 1.338068,0 1.713109,0.62272 1.91286,3.17615 0.169369,2.16506 7.589605,3.93951 8.73358,2.08852 0.627385,-1.01513 2.861307,-1.17339 3.162617,-0.22405 0.55696,1.75483 7.24266,0.56573 7.19035,-1.27886 -0.12065,-4.25389 3.51189,-4.78768 3.86565,-0.56805 0.19456,2.32064 -0.32115,2.03894 3.92203,2.14238 3.60459,0.0879 3.60459,0.0879 3.4677,-3.27778 -0.1369,-3.36565 -0.1369,-3.36565 0.61353,-3.65096 2.3227,-0.88309 3.19299,0.12668 3.48117,4.03909 0.20944,2.84332 0.20944,2.84332 3.2177,2.96417 3.52068,0.14142 3.28504,0.008 3.28504,1.86543 0,1.85592 0.21451,1.72731 -3.17963,1.90637 -2.86315,0.15104 -2.89247,0.15924 -2.77464,0.77566 0.59645,3.12013 -1.76405,5.90932 -3.51729,4.15608 z M 99.237466,160.13537 c -4.579356,-2.70226 -14.752705,-11.83458 -17.213605,-15.45215 -9.234414,-13.57475 -0.473919,-30.30492 13.907261,-26.5591 1.504774,0.39194 2.055062,0.66232 4.737678,2.32776 1.21069,0.75163 1.21069,0.75163 2.55567,-0.31926 7.25463,-5.77622 19.0395,-1.02182 21.67467,8.74427 2.22386,8.24175 -1.61865,15.7421 -12.69709,24.78394 -1.52797,1.24707 -3.31391,2.7303 -3.96875,3.29606 -3.85978,3.33471 -6.9067,4.41127 -8.995834,3.17848 z m 3.380854,-3.88554 c 3.5894,-2.26589 13.74331,-11.63005 15.63437,-14.41836 2.94421,-4.34116 3.4771,-5.62403 3.47045,-8.35476 -0.0248,-10.18427 -9.49937,-15.3381 -17.30861,-9.41527 -2.45041,1.85849 -2.59303,1.88108 -4.28727,0.67912 -2.766987,-1.96301 -3.439023,-2.36127 -4.77935,-2.83236 -6.655956,-2.33938 -13.566415,3.76843 -13.268487,11.72735 0.109786,2.93283 0.98827,5.19731 1.944502,5.01236 0.291041,-0.0563 1.77677,-0.17536 3.30162,-0.26459 2.772453,-0.16223 2.772453,-0.16223 4.303538,-4.39557 2.749697,-7.6027 5.184538,-8.02659 6.775489,-1.17958 0.42125,1.81294 1.152237,4.96313 1.624418,7.00042 0.47218,2.03729 0.91807,3.88276 0.99088,4.10104 0.17979,0.53904 1.12989,-2.4855 2.86218,-9.1114 1.53335,-5.86495 1.78607,-6.3909 3.19812,-6.6558 1.70458,-0.31978 2.6802,0.83721 3.25571,3.86095 0.70138,3.68511 2.0894,7.32365 2.52496,6.6189 0.17789,-0.28783 4.04556,-0.37614 4.74353,-0.1083 0.30215,0.11595 0.41851,0.51795 0.41851,1.4459 0,1.53714 -0.22414,1.70165 -2.5975,1.90647 -1.49842,0.12931 -1.75864,0.2418 -2.51354,1.08658 -1.90308,2.12965 -3.25419,1.36565 -4.53644,-2.56519 l -0.83207,-2.55077 -1.1008,3.10248 c -1.10032,3.10113 -1.36806,3.94831 -2.46583,7.80233 -1.62329,5.69897 -4.689475,4.72942 -6.228329,-1.96946 -0.855233,-3.72296 -2.1781,-8.66444 -2.449224,-9.14892 -0.13616,-0.2433 -0.576295,0.45201 -1.330204,2.10141 -1.664007,3.64052 -2.176647,3.94195 -4.585522,2.69628 -0.914249,-0.47278 -4.168871,-0.81755 -4.168871,-0.44162 0,1.83173 11.458025,12.67533 15.21354,14.39774 1.29519,0.59401 1.02234,0.60988 2.19023,-0.12738 z"
       id="path1" /></g></svg>
