<?xml version="1.0" encoding="UTF-8" standalone="no"?>
<!-- Created with Inkscape (http://www.inkscape.org/) -->

<svg
   width="86.783142mm"
   height="44.86396mm"
   viewBox="0 0 86.783142 44.86396"
   version="1.1"
   id="svg1"
   xml:space="preserve"
   inkscape:version="1.3.2 (091e20e, 2023-11-25, custom)"
   sodipodi:docname="weights-icon.svg"
   xmlns:inkscape="http://www.inkscape.org/namespaces/inkscape"
   xmlns:sodipodi="http://sodipodi.sourceforge.net/DTD/sodipodi-0.dtd"
   xmlns="http://www.w3.org/2000/svg"
   xmlns:svg="http://www.w3.org/2000/svg"><sodipodi:namedview
     id="namedview1"
     pagecolor="#505050"
     bordercolor="#eeeeee"
     borderopacity="1"
     inkscape:showpageshadow="0"
     inkscape:pageopacity="0"
     inkscape:pagecheckerboard="0"
     inkscape:deskcolor="#505050"
     inkscape:document-units="mm"
     inkscape:zoom="1.0449705"
     inkscape:cx="179.4309"
     inkscape:cy="102.87371"
     inkscape:window-width="2560"
     inkscape:window-height="1369"
     inkscape:window-x="-8"
     inkscape:window-y="-8"
     inkscape:window-maximized="1"
     inkscape:current-layer="layer1" /><defs
     id="defs1" /><g
     inkscape:label="Layer 1"
     inkscape:groupmode="layer"
     id="layer1"
     transform="translate(-57.447907,-121.2567)"><path
       style="fill:#000000"
       d="m 73.424144,165.68028 c -1.802395,-0.91937 -2.700394,-2.67319 -2.703267,-5.27956 l -0.0015,-1.33847 -2.182812,0.005 -2.182812,0.005 -0.82838,-0.44338 c -1.112965,-0.5957 -2.13442,-1.85407 -2.502652,-3.08312 l -0.30242,-1.00939 0.102076,-2.02139 0.102076,-2.0214 h -1.535781 -1.535805 l -0.665673,-0.43617 c -0.36612,-0.23989 -0.834282,-0.76222 -1.040359,-1.16073 l -0.374687,-0.72456 -0.16212,-4.59396 -0.162121,-4.59396 0.555797,-0.87527 0.555797,-0.87528 1.119013,-0.50798 1.119013,-0.50797 0.992187,-0.006 0.992188,-0.006 0.0058,-1.78594 0.0058,-1.78593 0.489993,-1.05834 c 0.600434,-1.29687 1.691175,-2.35148 2.995617,-2.89638 l 0.983689,-0.41091 h 1.72829 1.728289 v -1.43798 c 0,-2.2805 1.040559,-4.05952 2.963741,-5.06705 l 0.714782,-0.37446 2.898385,-0.066 2.898384,-0.066 0.999922,0.80907 c 0.549957,0.44498 1.245751,1.14031 1.546208,1.54517 l 0.546286,0.73611 -0.05263,6.39232 -0.05263,6.39233 h 17.581322 17.58133 l -6e-5,-6.02981 -5e-5,-6.02981 0.50102,-0.98165 c 0.57696,-1.13046 1.11083,-1.6473 2.4094,-2.33253 l 0.92604,-0.48866 2.51354,-0.006 2.51354,-0.006 1.06288,0.60911 1.06288,0.60911 0.65391,0.95433 0.65391,0.95432 0.0981,1.94199 0.0981,1.942 h 2.03594 2.03595 l 1.25685,0.79707 1.25685,0.79707 0.50893,1.12116 0.50893,1.12116 0.006,1.75185 0.006,1.75185 1.38588,0.18384 c 1.7975,0.23845 2.98657,0.81708 3.67984,1.79069 l 0.55739,0.78278 0.0774,4.58407 0.0774,4.58407 -0.44161,0.88039 -0.4416,0.8804 -1.05834,0.59495 -1.05833,0.59494 -1.37351,0.004 -1.37352,0.004 0.0394,2.45951 0.0394,2.45951 -0.60922,0.98574 c -0.8131,1.31563 -2.01174,2.1904 -3.52123,2.5698 l -1.24238,0.31226 -1.20501,-0.0958 -1.20502,-0.0958 v 1.66869 1.66869 l -0.37325,0.71446 c -0.53178,1.01791 -1.7157,2.07477 -2.8594,2.55252 l -0.98369,0.41091 -2.45589,-9.9e-4 -2.4559,-9.9e-4 -0.8493,-0.51785 c -0.46712,-0.28482 -1.1815,-1.01957 -1.5875,-1.63279 l -0.7382,-1.11494 -0.0892,-6.83289 -0.0892,-6.83289 H 100.70607 83.113809 l 0.08278,6.72959 0.08278,6.72958 -0.793546,1.12908 -0.793546,1.12908 -0.922379,0.5394 -0.922379,0.53939 -2.778125,0.0775 -2.778125,0.0775 z m 5.67279,-22.01418 0.04316,-18.0731 -0.689123,-0.26201 -0.689123,-0.262 -1.404555,0.17549 -1.404555,0.17549 v 18.04937 18.04938 l 0.186878,0.18687 c 0.102783,0.10279 1.025518,0.1524 2.050521,0.11025 l 1.863642,-0.0766 z m 47.120636,-0.12913 0.068,-18.20224 -1.78777,0.0783 -1.78776,0.0783 -0.0685,17.85937 c -0.0377,9.82266 -0.009,18.01392 0.0627,18.20282 l 0.13124,0.34344 1.65707,-0.0789 1.65707,-0.0789 z m 7.7749,0.47515 -0.0946,-10.84792 -0.41896,-0.33073 -0.41896,-0.33073 h -1.14006 -1.14005 v 11.25742 11.25742 l 1.65365,-0.0788 1.65364,-0.0788 z m -63.273069,-0.26459 v -10.9802 H 68.99961 67.279818 v 10.82951 10.82952 l 0.595313,0.11466 c 0.327422,0.0631 1.101328,0.13087 1.719791,0.15069 l 1.124479,0.036 z m -7.672916,-0.54756 v -2.79653 l -0.595312,0.0845 -0.595313,0.0845 -0.0754,2.71198 -0.0754,2.71198 h 0.670715 0.670714 z m 76.464575,-0.11389 v -2.91042 h -0.66146 -0.66146 v 2.91042 2.91041 h 0.66146 0.66146 z m -37.13703,1.85208 h 15.97036 v -1.71979 -1.71979 H 100.589 82.83362 l 0.160599,0.41851 c 0.08833,0.23018 0.160599,0.99536 0.160599,1.70039 v 1.28188 l 0.463021,0.13428 c 0.254661,0.0738 0.985654,0.0826 1.624428,0.0194 0.638774,-0.0632 8.348075,-0.11488 17.131763,-0.11488 z"
       id="path1" /></g></svg>
